<svg width="432" height="151" viewBox="0 0 432 151" fill="none" xmlns="http://www.w3.org/2000/svg">
<path d="M157.499 60.1269V41.9104H162.659V59.5257C162.659 62.9525 164.279 65.4776 168.359 65.4776C172.139 65.4776 174.059 63.4936 174.059 59.5257V41.9104H179.219V59.706C179.219 66.3193 174.839 70.1068 168.359 70.1068C161.879 70.167 157.499 66.8002 157.499 60.1269ZM184.079 49.7261H188.699V52.191H188.759C190.079 50.2671 192.179 49.3653 194.399 49.3653C198.899 49.3653 201.359 52.191 201.359 56.9405V69.7461H196.619V58.1429C196.619 55.1369 195.359 53.5136 192.899 53.5136C190.319 53.5136 188.759 55.1369 188.759 58.5036V69.686H184.019L184.079 49.7261ZM206.339 41.6098H211.079V46.6599H206.339V41.6098ZM206.339 49.7261H211.079V69.686H206.339V49.7261ZM216.899 64.9966V53.5136H214.199V49.7261H216.899V43.714H221.639V49.7862H225.959V53.5738H221.639V63.9144C221.639 65.4174 222.419 65.8383 223.499 65.8383C224.459 65.8383 224.999 65.7782 225.959 65.6579V69.686C224.879 69.9866 223.139 70.0467 222.479 70.0467C219.359 70.0467 216.899 68.5437 216.899 64.9966ZM228.179 62.0507V58.1429C228.179 52.5517 232.379 49.4255 237.299 49.4255C241.619 49.4255 245.879 51.9505 245.879 57.2411V61.0888H233.099V62.171C233.099 64.696 235.139 66.199 237.719 66.199C239.339 66.199 240.959 65.1168 242.039 63.6138L245.699 65.7181C244.139 68.8443 241.019 70.167 237.479 70.167C232.619 70.167 228.179 67.5217 228.179 62.0507ZM241.199 57.7822V57.2411C241.199 54.5357 239.279 53.3934 237.359 53.3934C235.319 53.3934 233.159 54.4756 233.159 57.4816V57.7822H241.199ZM249.299 62.2912V57.4816C249.299 52.0708 253.079 49.3653 257.519 49.3653C259.739 49.3653 261.539 50.5076 262.559 51.8303H262.679V41.9104H267.419V69.7461H262.799V67.5217C261.659 69.0848 258.959 70.2271 257.219 70.2271C252.779 70.167 249.299 67.4014 249.299 62.2912ZM262.679 62.171V57.2411C262.679 54.8363 260.759 53.3934 258.299 53.3934C256.319 53.3934 254.159 54.4756 254.159 57.3613V62.2912C254.159 64.696 256.019 66.1389 258.479 66.1389C260.459 66.0788 262.679 65.0567 262.679 62.171ZM282.539 41.9104H287.579L299.639 60.8483H299.699V41.9104H304.679V69.7461H299.639L287.639 50.7481H287.579V69.7461H282.599L282.539 41.9104ZM308.759 64.0347C308.759 60.187 312.239 57.9024 316.139 57.9024H321.419V56.0988C321.419 53.9946 320.039 53.0928 317.579 53.0928C315.539 53.0928 313.979 53.8142 313.979 55.0768V55.7982H309.719V55.2571C309.719 50.8684 313.859 49.4255 317.639 49.4255C322.079 49.4255 326.159 50.9285 326.159 55.7982V65.5377C326.159 66.4395 326.279 69.3854 326.519 69.8062H321.839C321.779 69.5056 321.659 68.3032 321.659 68.0026H321.599C319.859 69.8062 318.359 70.2271 315.779 70.2271C311.579 70.1068 308.759 67.8223 308.759 64.0347ZM321.419 62.3513V61.3894H316.739C314.699 61.3894 313.379 62.1108 313.379 63.8543C313.379 65.5377 314.759 66.3794 316.979 66.3794C320.819 66.3794 321.419 64.5156 321.419 62.3513ZM331.799 64.9966V53.5136H329.099V49.7261H331.799V43.714H336.539V49.7862H340.859V53.5738H336.539V63.9144C336.539 65.4174 337.319 65.8383 338.399 65.8383C339.359 65.8383 339.899 65.7782 340.859 65.6579V69.686C339.779 69.9866 338.039 70.0467 337.379 70.0467C334.259 70.0467 331.799 68.5437 331.799 64.9966ZM344.039 41.6098H348.779V46.6599H344.039V41.6098ZM344.039 49.7261H348.779V69.686H344.039V49.7261ZM352.979 62.3513V57.7822C352.979 52.3714 357.599 49.4255 361.979 49.4255C366.779 49.4255 371.099 52.6118 371.099 57.7221V61.8102C371.099 67.2211 366.479 70.167 362.099 70.167C357.299 70.167 352.979 67.4615 352.979 62.3513ZM366.299 62.2311V57.3012C366.299 54.8964 364.439 53.4535 361.979 53.4535C359.999 53.4535 357.839 54.5357 357.839 57.4215V62.3513C357.839 64.7561 359.699 66.199 362.159 66.199C364.139 66.199 366.299 65.1169 366.299 62.2311ZM375.359 49.7261H379.979V52.191H380.039C381.359 50.2671 383.459 49.3653 385.679 49.3653C390.179 49.3653 392.639 52.191 392.639 56.9405V69.7461H387.899V58.1429C387.899 55.1369 386.639 53.5136 384.179 53.5136C381.599 53.5136 380.039 55.1369 380.039 58.5036V69.686H375.299L375.359 49.7261ZM396.239 66.2591L399.599 63.7341C400.859 65.3573 402.839 66.3193 405.059 66.3193C406.979 66.3193 409.019 65.6579 409.019 63.8543C409.019 62.2912 407.939 61.9305 405.299 61.4495L402.719 60.9686C399.479 60.3674 397.259 58.8042 397.259 55.7982C397.259 51.6499 400.919 49.2451 405.179 49.2451C408.779 49.2451 411.299 50.1469 412.979 52.4916L409.559 54.8363C408.419 53.4535 407.039 52.9124 405.119 52.9124C403.259 52.9124 401.879 53.6339 401.879 55.1369C401.879 56.5197 403.619 56.7601 405.659 57.1209L408.659 57.7221C412.019 58.3834 413.999 60.3072 413.999 63.3132C413.999 67.9425 409.319 70.1068 405.179 70.1068C401.579 70.167 398.219 69.205 396.239 66.2591ZM157.499 102.752V92.8323C157.499 87.1209 161.819 83.0928 167.819 83.0928C173.399 83.0928 177.539 86.2792 177.539 91.0287V92.5317H175.199V91.3894C175.199 87.6018 172.379 85.2571 167.699 85.2571C163.199 85.2571 159.959 88.203 159.959 92.7722V102.271C159.959 106.78 163.199 109.666 167.879 109.666C172.499 109.666 175.319 107.261 175.319 103.474V99.5056H167.519V97.2812H177.659V103.774C177.659 108.704 173.759 111.83 167.879 111.83C162.059 111.951 157.499 108.764 157.499 102.752ZM183.359 106.84V83.5738H185.639V106.961C185.639 108.464 186.479 109.666 188.459 109.666C189.239 109.666 189.959 109.546 190.619 109.486V111.229C189.659 111.53 188.579 111.59 187.739 111.59C184.319 111.59 183.359 109.245 183.359 106.84ZM193.499 104.496V99.2651C193.499 94.215 196.919 91.5698 201.359 91.5698C206.159 91.5698 209.219 94.2752 209.219 99.205V104.255C209.219 109.305 205.919 111.951 201.419 111.951C196.679 111.951 193.499 109.425 193.499 104.496ZM206.939 104.315V99.0247C206.939 95.8383 205.199 93.5537 201.359 93.5537C197.699 93.5537 195.779 95.718 195.779 99.205V104.435C195.779 107.742 197.579 110.027 201.419 110.027C205.139 109.967 206.939 107.983 206.939 104.315ZM216.419 107.983H216.299V111.47H214.139V83.6339H216.419V95.4776H216.539C217.799 92.6519 220.559 91.5096 222.779 91.5096C226.859 91.5096 229.619 94.1549 229.619 98.2431V104.556C229.619 109.786 226.019 111.951 222.359 111.951C219.839 111.951 217.199 110.508 216.419 107.983ZM227.279 104.856V98.2431C227.279 95.5377 225.359 93.5537 222.059 93.5537C219.359 93.5537 216.419 96.0187 216.419 100.047V103.894C216.419 107.622 219.059 110.027 222.119 110.027C224.639 109.967 227.279 108.403 227.279 104.856ZM233.459 106.299C233.459 101.91 237.479 100.468 240.659 100.468H246.359V97.4615C246.359 94.3954 244.319 93.3734 241.439 93.3734C239.039 93.3734 236.459 94.215 236.459 96.7401V97.3413H234.359V96.7401C234.359 92.8924 237.959 91.4495 241.559 91.4495C245.339 91.4495 248.699 92.8323 248.699 97.0407V106.48C248.699 107.622 248.879 110.508 248.999 111.349H246.719C246.659 110.688 246.539 108.824 246.539 108.283H246.479C244.859 111.289 242.279 111.77 239.879 111.77C236.339 111.83 233.459 109.906 233.459 106.299ZM246.359 104.375V102.211H241.139C238.499 102.211 235.739 102.872 235.739 106.179C235.739 108.764 238.019 110.027 240.419 110.027C244.379 110.087 246.359 107.742 246.359 104.375ZM254.279 106.84V83.5738H256.559V106.961C256.559 108.464 257.399 109.666 259.379 109.666C260.159 109.666 260.879 109.546 261.539 109.486V111.229C260.579 111.53 259.499 111.59 258.659 111.59C255.239 111.59 254.279 109.245 254.279 106.84ZM274.319 102.752V92.8323C274.319 87.1209 278.639 83.0928 284.699 83.0928C290.279 83.0928 294.419 86.3994 294.419 91.1489V92.712H292.019V91.5698C292.019 87.7822 289.199 85.3173 284.579 85.3173C280.079 85.3173 276.779 88.2631 276.779 92.8323V102.331C276.779 106.84 280.019 109.726 284.759 109.726C289.319 109.726 292.019 107.201 292.019 103.474V102.812H294.419V103.894C294.419 108.824 290.399 111.951 284.819 111.951C278.879 111.951 274.319 108.764 274.319 102.752ZM298.379 104.496V99.2651C298.379 94.215 301.799 91.5698 306.239 91.5698C311.039 91.5698 314.099 94.2752 314.099 99.205V104.255C314.099 109.305 310.799 111.951 306.299 111.951C301.559 111.951 298.379 109.425 298.379 104.496ZM311.819 104.315V99.0247C311.819 95.8383 310.079 93.5537 306.239 93.5537C302.579 93.5537 300.659 95.718 300.659 99.205V104.435C300.659 107.742 302.459 110.027 306.299 110.027C310.019 109.967 311.819 107.983 311.819 104.315ZM318.959 91.9906H321.119V95.7181H321.179C322.559 92.9525 325.139 91.5698 327.899 91.5698C331.079 91.5698 332.819 93.5537 333.359 95.8383H333.419C334.799 93.0728 337.439 91.5698 340.319 91.5698C344.099 91.5698 346.379 94.0347 346.379 97.5217V111.47H344.099V98.7842C344.099 95.2972 342.419 93.6138 339.599 93.6138C336.599 93.6138 333.899 96.1389 333.779 99.5658V111.47H331.499V98.6639C331.439 95.2972 329.879 93.6138 327.059 93.6138C324.359 93.6138 321.179 95.8383 321.179 99.686V111.53H318.899L318.959 91.9906ZM352.139 91.9906H354.299V95.4776H354.359C355.739 92.712 358.499 91.5096 360.719 91.5096C364.799 91.5096 367.559 94.0948 367.559 98.1229V104.496C367.559 109.726 363.959 111.89 360.359 111.89C357.839 111.89 355.319 110.448 354.479 107.922H354.359V118.985H352.079L352.139 91.9906ZM365.279 104.856V98.3032C365.279 95.5978 363.359 93.4936 360.059 93.4936C357.359 93.4936 354.419 95.7782 354.419 99.8663V103.834C354.419 107.562 357.059 109.967 360.119 109.967C362.639 109.967 365.279 108.403 365.279 104.856ZM371.459 106.299C371.459 101.91 375.479 100.468 378.659 100.468H384.359V97.4615C384.359 94.3954 382.319 93.3734 379.439 93.3734C377.039 93.3734 374.459 94.215 374.459 96.7401V97.3413H372.359V96.7401C372.359 92.8924 375.959 91.4495 379.559 91.4495C383.339 91.4495 386.699 92.8323 386.699 97.0407V106.48C386.699 107.622 386.879 110.508 386.999 111.349H384.719C384.659 110.688 384.539 108.824 384.539 108.283H384.479C382.859 111.289 380.279 111.77 377.879 111.77C374.339 111.83 371.459 109.906 371.459 106.299ZM384.359 104.375V102.211H379.139C376.499 102.211 373.739 102.872 373.739 106.179C373.739 108.764 376.019 110.027 378.419 110.027C382.379 110.087 384.359 107.742 384.359 104.375ZM391.199 104.135V99.6259C391.199 94.5758 394.259 91.5698 398.939 91.5698C403.499 91.5698 406.319 94.1549 406.319 98.0026V98.6038H404.099V97.8223C404.099 95.8383 402.599 93.4936 398.939 93.4936C395.339 93.4936 393.539 96.0788 393.539 99.4455V104.135C393.539 107.502 395.159 109.967 398.999 109.967C402.659 109.967 404.099 107.682 404.099 105.638V104.977H406.319V105.458C406.319 109.305 403.559 111.89 398.939 111.89C394.139 111.951 391.199 109.125 391.199 104.135ZM412.259 107.562V93.9145H408.659V92.0507H412.259V85.9185H414.539V92.0507H420.299V93.9145H414.539V106.961C414.539 109.065 415.619 109.726 417.599 109.726C418.619 109.726 419.639 109.546 420.539 109.305V111.289C419.279 111.65 417.719 111.77 416.939 111.77C414.479 111.77 412.259 110.868 412.259 107.562ZM94.4392 80.9886C94.1992 80.8082 94.1392 79.7862 94.1392 79.7862C93.4792 74.676 92.2192 69.5056 90.2392 64.4555C90.1192 64.1549 90.0592 63.9746 90.0592 63.7942C90.0592 63.5537 90.1792 63.3132 90.7792 63.0126C93.3592 61.8102 95.4592 60.3072 97.0192 58.7441C97.2592 58.5036 97.4392 58.3834 97.5592 58.3834C97.6792 58.3834 97.7992 58.5036 98.0392 58.8643C100.379 62.8924 102.119 67.4014 103.319 72.1509C103.439 72.692 103.499 73.1128 103.499 73.4134C103.499 74.0748 103.259 74.5557 102.659 75.1569C101.099 76.7201 98.3392 78.9445 95.4592 80.688C95.3392 80.688 94.6192 81.1088 94.4392 80.9886ZM91.9192 86.8804C91.9192 86.8804 91.9192 85.9786 91.6192 85.7982C91.3192 85.6179 90.5992 85.9185 90.5992 85.9185C85.5592 87.7221 80.0392 88.6239 74.2792 88.8042C73.1992 88.8643 73.2592 89.1048 73.1992 90.0066C73.1392 95.1169 73.0192 99.9265 72.8992 104.315C72.8992 104.315 72.8392 104.736 73.0192 104.916C73.1392 105.037 73.6192 105.037 73.6192 105.037C79.3792 104.676 84.8392 103.413 89.8192 101.369C90.5392 101.069 90.6592 100.588 90.8992 99.7461C92.2792 94.215 91.9192 86.8804 91.9192 86.8804ZM89.6992 60.668C91.9792 59.4655 94.0792 58.0227 95.3992 56.6399C95.6992 56.3393 95.8192 56.0988 95.8192 55.7982C95.8192 55.4976 95.6992 55.197 95.3992 54.716C92.3392 50.4475 88.6792 47.0808 84.7192 44.5557C83.5792 45.3373 81.7792 46.0587 79.9192 46.4796C83.1592 50.4475 86.0392 54.9565 88.3792 60.0667C88.6192 60.5477 88.7392 60.8483 88.9192 60.9084C89.1592 60.9686 89.4592 60.7882 89.6992 60.668ZM85.7392 62.3513C86.0392 62.2311 86.2192 62.171 86.3392 61.9305C86.3992 61.69 86.2192 61.1489 86.2192 61.1489C83.9992 55.678 81.2992 50.688 78.4192 46.8403C76.8592 47.1409 73.8592 47.3213 72.7792 47.3213C72.9592 52.8523 73.0792 58.3233 73.1392 63.6138C73.1392 64.0948 73.1992 64.3353 73.3792 64.4555C73.4992 64.5758 73.7392 64.6359 73.9792 64.6359C77.5792 64.5758 82.7392 63.4936 85.7392 62.3513ZM89.6392 103.774C89.6392 103.654 89.5192 103.654 89.5192 103.654C89.3992 103.654 89.2192 103.714 88.7992 103.834C82.4992 105.818 77.0392 106.299 73.4992 106.359C73.0192 106.359 72.8992 106.54 72.8392 107.081L72.5392 111.77C72.5392 111.77 79.6192 111.951 86.8792 108.884C87.8992 107.562 88.7392 105.999 89.4592 104.255C89.5192 104.075 89.5792 103.955 89.6392 103.774ZM104.339 77.8623C104.339 77.7421 104.219 77.8623 104.219 77.8623C102.539 79.5457 99.4792 81.8303 95.8792 83.6339C94.7392 84.2351 94.6192 84.6559 94.5592 85.678C94.6192 91.5096 93.8992 95.9585 92.6392 99.7461C92.6392 99.7461 92.5192 100.047 92.8792 99.8663C93.2392 99.686 98.4592 97.1609 102.059 93.4936C103.259 92.2912 104.219 90.4876 104.399 88.5637C105.179 82.191 104.339 77.8623 104.339 77.8623ZM106.139 70.4074C108.539 66.2591 108.539 62.8323 108.539 62.8323C108.539 62.5918 108.539 62.4114 108.479 62.2912C107.399 57.5417 104.879 53.0327 101.099 48.8844C101.159 49.3052 101.159 49.6659 101.159 50.0868C101.159 51.5297 100.859 53.0327 100.139 54.5958C99.8992 55.1369 99.7792 55.4976 99.7792 55.7982C99.7792 56.0988 99.8992 56.2792 100.079 56.6399C100.139 56.5197 103.979 61.7501 106.139 70.4074ZM51.3592 82.191C51.7192 76.2992 53.3392 70.1068 55.5592 64.215C55.6192 64.0948 55.6192 63.9746 55.6192 63.9144C55.6192 63.7341 55.4992 63.6138 55.1992 63.4936C51.4792 61.8704 48.6592 59.6459 46.7992 57.2411C46.7992 57.2411 46.6792 57.1209 46.7992 57.0006C46.9192 56.8804 47.0392 57.0006 47.0392 57.0006C49.1392 59.0447 52.1992 60.7281 55.7392 62.0507C55.9192 62.1108 55.9792 62.1108 56.0992 62.1108C56.2792 62.1108 56.3992 61.9906 56.6392 61.5096C59.0392 55.9786 62.1592 50.7481 65.6992 46.4195C62.6992 45.698 59.6392 44.0748 58.9192 42.3313C58.9192 42.3313 58.7992 42.1509 58.9792 42.0307C59.1592 41.9706 59.2792 42.1509 59.2792 42.1509C62.5792 45.7581 72.2392 45.5177 72.2392 45.5177C76.2592 45.5177 84.5992 44.1349 84.5992 40.708C84.5992 37.6419 80.1592 36.0187 72.1192 35.8984C47.7592 35.8984 34.6792 57.0607 34.6792 73.8343C34.6792 94.0948 51.8392 111.77 71.6992 111.77C71.6992 111.47 71.4592 107.021 71.4592 107.021C71.4592 106.54 71.3392 106.359 70.7392 106.299C70.7392 106.299 62.0992 105.638 59.2792 104.195C59.1592 104.135 59.2192 104.015 59.3992 104.015C59.3992 104.015 65.2192 105.037 70.7992 105.037C70.7992 105.037 71.3992 105.097 71.3992 104.375C71.3992 103.774 71.1592 90.0066 71.1592 90.0066C71.0992 88.9846 70.9792 88.8042 69.9592 88.7441C63.9592 88.4435 58.0792 87.181 52.9792 85.0167C52.8592 84.9565 52.7992 84.9565 52.6792 84.9565C52.5592 85.0166 52.5592 85.2571 52.5592 85.2571C52.0792 91.6299 52.7992 97.8223 52.7992 97.8223C52.7992 97.9425 52.7992 98.0026 52.6792 98.0026C52.5592 98.0026 52.5592 97.8824 52.5592 97.8824C51.6592 94.4555 51.1792 90.7281 51.1792 86.7601C51.1792 86.4595 51.2392 84.8363 51.2392 84.8363C51.2392 84.4155 51.0592 84.1148 50.6992 83.9345C48.2992 82.7321 46.1392 81.2291 44.2192 79.7261C44.2192 79.7261 44.0992 79.6058 44.2192 79.4856C44.3392 79.4255 44.3992 79.4856 44.3992 79.4856C46.3792 80.7481 48.6592 81.8303 50.9992 82.7922H51.2992C51.2992 82.7321 51.2992 82.5517 51.3592 82.191ZM98.0992 52.4916C98.7592 50.8082 98.8792 48.4635 98.1592 46.7802C97.4992 45.217 95.3992 43.5938 95.3992 43.5938C92.1592 41.0688 88.5592 39.5056 86.8792 38.8443C87.1792 39.3854 87.3592 39.9265 87.3592 40.4675C87.3592 41.4295 86.8792 42.3914 86.0392 43.4134C90.2992 45.8784 93.8392 48.8243 96.9592 52.4315C96.9592 52.4315 97.4392 53.0327 97.7392 53.0327C97.9192 52.9726 98.0992 52.4916 98.0992 52.4916ZM107.279 80.4475C107.279 83.0327 107.039 85.6179 106.559 88.0227C108.659 84.4155 110.339 79.1249 110.339 72.9926C110.339 71.2491 110.219 69.5056 109.919 67.702C109.559 69.5056 108.959 71.3092 107.939 72.9926C107.279 74.1349 106.979 74.9165 107.099 75.698C107.219 78.2231 107.279 80.4475 107.279 80.4475ZM90.9592 104.135C90.2992 105.518 89.5192 106.84 88.6792 108.043C93.1792 105.818 98.2792 101.429 101.759 96.9205C99.0592 99.0848 95.9992 100.949 92.5192 102.391C91.8592 102.752 91.2592 103.534 90.9592 104.135ZM71.1592 68.0026C71.1592 67.2211 70.7992 66.8002 70.0792 66.7401C65.6392 66.5597 61.3792 65.7181 57.5992 64.3954C57.4192 64.3353 57.2992 64.2752 57.1792 64.2752C57.0592 64.2752 56.9392 64.3353 56.8792 64.6359C53.3992 73.4134 52.6792 82.9124 52.6792 82.9124C52.6192 83.3333 52.7392 83.4535 53.0392 83.5738C53.0392 83.5738 60.4192 86.3994 69.8992 86.3994C69.8992 86.3994 70.5592 86.3994 70.7392 86.2191C70.9792 85.9786 71.0392 85.7982 70.9792 85.0167C71.0992 80.3874 71.1592 68.0026 71.1592 68.0026ZM57.9592 61.9906C57.7192 62.4716 57.8392 62.6519 57.8392 62.6519C57.8992 62.7722 58.0792 62.8323 58.0792 62.8323C60.8992 63.7942 66.3592 64.696 70.1992 64.696C70.6192 64.696 70.8592 64.6359 71.0392 64.4555C71.2192 64.2752 71.2792 63.9746 71.3392 63.4936C71.4592 58.203 71.5792 52.672 71.8792 47.3213C70.2592 47.2611 68.2192 47.0207 66.8392 46.7201C63.2392 51.2291 60.2992 56.3393 57.9592 61.9906ZM74.0992 86.3393C76.7392 86.2191 83.5192 85.7381 90.3592 83.0928C91.3192 82.7321 91.4992 82.3112 91.4992 81.5898C91.4992 81.4094 91.4992 81.2291 91.4392 80.9886C90.7792 75.7581 89.5192 70.5277 87.7792 65.2972C87.5392 64.6359 87.4192 64.5156 87.2392 64.5156C87.1192 64.5156 86.9392 64.5758 86.6992 64.6359C82.9192 65.8984 78.7792 66.6199 74.3992 66.7401C73.5592 66.8002 73.3192 67.3413 73.3192 67.9425C73.3192 70.6479 73.3792 74.9165 73.3792 80.688C73.3792 82.1309 73.3792 84.1149 73.3792 85.4976C73.3792 85.4976 73.3792 85.9184 73.5592 86.1589C73.5592 86.3393 73.7992 86.3994 74.0992 86.3393ZM16.3792 99.686C19.2592 107.381 26.3992 108.043 31.1992 112.732C32.0992 113.634 32.9992 114.476 34.0192 115.017L34.0792 114.957C32.9392 113.754 31.6792 112.431 30.8992 110.868C28.0792 106.239 29.0992 99.686 26.9392 94.696C28.8592 97.4014 30.5992 100.227 31.7392 103.353C33.4792 108.403 34.1392 114.115 38.0992 117.902C33.7792 116.219 28.7392 116.58 24.8992 113.514C20.9392 110.327 17.1592 105.337 16.3792 99.686ZM56.4592 121.81C57.0592 121.81 57.5392 121.63 57.5392 121.63C53.8192 120.788 50.6392 120.127 47.4592 117.421C43.2592 113.874 40.0192 110.327 35.3392 107.442C35.9392 107.802 38.5792 113.273 40.7992 116.52C42.3592 118.804 44.8192 120.067 47.0392 120.608C48.8992 121.089 49.3192 121.269 49.3192 121.269C49.3192 121.269 49.0192 121.45 48.2992 121.269C48.2992 121.269 42.1192 120.007 38.7592 120.007C25.4392 120.007 21.9592 114.896 21.9592 114.896C25.9192 122.051 34.0792 124.756 39.4192 124.756C47.0992 124.696 52.7992 121.81 56.4592 121.81ZM105.479 124.696C110.819 124.696 118.979 122.051 122.939 114.836C122.939 114.836 119.459 119.947 106.139 119.947C102.779 119.947 96.5992 121.209 96.5992 121.209C95.8792 121.389 95.5792 121.209 95.5792 121.209C95.5792 121.209 95.9992 121.029 97.8592 120.548C100.019 120.007 102.539 118.744 104.099 116.46C106.319 113.213 108.959 107.742 109.559 107.381C104.879 110.267 101.639 113.874 97.4392 117.361C94.2592 120.007 91.0792 120.728 87.3592 121.57C87.3592 121.57 87.8392 121.75 88.4392 121.75C92.1592 121.81 97.8592 124.696 105.479 124.696ZM22.5592 103.293C23.8792 104.435 26.5792 106.9 27.0592 107.622C27.0592 107.622 26.7592 106.6 26.4592 105.337C26.1592 104.075 25.7392 101.009 24.4792 98.3633C23.5192 96.2591 19.4392 89.5257 18.6592 85.7982C18.6592 85.7982 15.7192 97.4615 22.5592 103.293ZM106.799 117.902C111.119 116.219 116.099 116.58 119.939 113.514C123.959 110.327 127.799 105.337 128.579 99.686C125.699 107.381 118.559 107.983 113.699 112.672C112.799 113.574 111.899 114.415 110.879 114.957L110.819 114.896C111.899 113.694 113.219 112.371 113.999 110.808C116.819 106.179 115.799 99.6259 117.959 94.6359C116.039 97.3413 114.299 100.167 113.159 103.293C111.419 108.403 110.759 114.055 106.799 117.902ZM96.1792 126.319C89.5192 123.614 82.6192 120.187 74.6392 121.81C73.7392 121.991 73.0192 122.171 72.1792 122.171C71.3992 122.171 70.6792 121.991 69.7792 121.81C61.7392 120.187 54.8392 123.614 48.1792 126.319C43.1992 128.123 36.7192 127.822 32.3392 125.057C34.4992 127.582 37.3792 129.145 40.3792 130.227C45.8992 132.271 52.4992 130.888 57.0592 127.882C61.0192 125.838 64.3792 121.75 69.5392 123.253C64.2592 125.538 59.4592 128.784 55.0792 132.932L57.7792 135.037C57.7792 135.037 62.8792 128.123 72.1192 123.975C81.2992 128.123 86.4592 135.037 86.4592 135.037L89.2192 132.932C84.8392 128.784 80.0392 125.598 74.7592 123.253C79.9192 121.69 83.3392 125.778 87.2392 127.882C91.8592 130.888 98.3992 132.271 103.979 130.227C106.979 129.145 109.859 127.582 112.019 125.057C107.639 127.882 101.159 128.183 96.1792 126.319ZM122.399 103.293C129.239 97.4615 126.359 85.7982 126.359 85.7982C125.579 89.5257 121.499 96.3193 120.539 98.3633C119.279 101.009 118.859 104.075 118.559 105.337C118.259 106.6 117.959 107.622 117.959 107.622C118.379 106.9 121.079 104.435 122.399 103.293ZM14.3992 70.167C16.4392 70.3473 18.4192 70.5277 20.4592 70.708C22.0792 70.8283 22.9192 70.2271 23.0392 68.6639C23.0992 67.9425 23.0392 67.4014 22.7392 66.9205C22.3792 66.3193 21.8392 66.0187 20.6992 65.8984C18.7792 65.6579 16.7992 65.4776 14.8792 65.2371C14.6392 65.6579 14.4592 66.0788 14.2192 66.4996C14.0992 66.4996 13.9192 66.4996 13.7992 66.4395C13.9192 65.177 14.0992 63.9144 14.2192 62.6519C14.3392 62.6519 14.5192 62.712 14.6392 62.712C14.7592 63.193 14.8792 63.6138 14.9992 64.0948C16.8592 64.3353 18.7192 64.5156 20.5792 64.7561C21.9592 64.9365 22.7992 65.4175 23.3392 66.3794C23.7592 67.1609 23.9392 68.0627 23.8192 69.205C23.5792 71.6098 22.3192 72.8724 20.2792 72.692C18.2392 72.5116 16.2592 72.3914 14.2192 72.211C13.9792 72.6319 13.7992 73.0527 13.6192 73.4736C13.4992 73.4736 13.3192 73.4736 13.1992 73.4134C13.3192 71.8503 13.4392 70.3473 13.5592 68.7842C13.6792 68.7842 13.8592 68.7842 13.9792 68.8443C14.1592 69.3253 14.2792 69.7461 14.3992 70.167ZM17.6392 58.2631C19.7992 58.9846 22.0192 59.706 24.1792 60.4275C24.4792 60.1269 24.7792 59.7662 25.0792 59.4655C25.1992 59.5257 25.3192 59.5257 25.4992 59.5858C25.1392 60.668 24.7792 61.7501 24.4192 62.8323C24.2992 62.7722 24.1192 62.7722 23.9992 62.712C23.9392 62.2311 23.9392 61.8102 23.8792 61.3293C21.2992 60.4876 18.7192 59.6459 16.1392 58.8042C15.8392 59.1649 15.5392 59.5257 15.2392 59.8864C15.1792 59.8864 14.9992 59.8864 14.8792 59.8263C15.1792 58.8643 15.4792 57.9024 15.8392 56.8804C18.5392 55.9185 21.2392 54.9565 23.9392 54.0547C22.1392 53.3934 20.2792 52.7321 18.4792 52.1309C18.1792 52.4315 17.8792 52.7922 17.5792 53.1529C17.4592 53.0928 17.3392 53.0928 17.1592 53.0327C17.5192 51.8904 17.9392 50.7481 18.3592 49.6659C18.4792 49.7261 18.5992 49.7862 18.7192 49.7862C18.7192 50.2671 18.7192 50.7481 18.7792 51.2291C21.6592 52.2511 24.5392 53.3333 27.4192 54.3553C27.3592 54.5958 27.2392 54.8363 27.1792 55.0768C23.9992 56.0387 20.8192 57.1209 17.6392 58.2631ZM31.8592 40.5878L34.1392 42.211C33.5992 43.5938 33.1792 44.4355 32.6392 45.217C30.7792 47.8022 28.1992 48.3433 25.6192 46.4796C23.0392 44.676 22.1992 42.0307 24.4192 38.9044C24.8992 38.183 25.6792 37.4615 26.6392 36.5597L26.8192 36.3794L28.7992 37.8223L28.3792 38.4235L26.3992 38.0026C26.0992 38.183 25.9192 38.3633 25.7392 38.6038C23.8192 41.0086 24.4192 43.2331 26.7592 44.9164C28.8592 46.4195 31.0792 46.0587 32.4592 44.1349C32.6992 43.7742 32.7592 43.5337 32.7592 43.5337L30.7792 42.1509L29.5792 42.8724L29.2192 42.6319L31.7992 39.0848L32.1592 39.3253L31.8592 40.5878ZM35.9992 39.5056L30.2392 33.674L28.9792 34.1549L28.6792 33.8543L31.8592 30.7281L32.1592 31.0287L31.6192 32.2912L37.4392 38.2431L39.2392 36.4395L38.6392 34.4555L39.0592 33.9746L40.6792 35.9585C40.6792 35.9585 38.1592 38.3633 35.6992 40.9485L35.3992 40.6479L35.9992 39.5056ZM38.8192 31.4495C36.9592 28.7441 37.3792 25.8583 40.1992 24.0547C42.7792 22.4315 45.2992 23.1529 46.7992 25.6179C48.4192 28.3233 47.9992 31.2692 45.4192 32.9525C43.0792 34.5156 40.4992 33.8543 38.8192 31.4495ZM40.3192 30.0667C41.8792 32.2912 43.8592 33.0126 45.2392 32.171C46.5592 31.3293 46.6192 29.2251 45.2392 26.8804C43.9192 24.716 42.0592 23.7541 40.4392 24.8363C38.6392 25.9185 38.7592 27.9024 40.3192 30.0667ZM51.4192 28.3834L48.1792 20.8082H46.8592L46.6792 20.4475L51.2392 18.5237C52.3192 18.1028 52.9792 18.0427 53.6992 18.2832C54.3592 18.5237 54.7792 18.9445 55.0192 19.5457C55.4992 20.8082 54.8392 22.0708 53.2192 22.9124C55.1992 22.191 56.5192 22.6118 57.1192 24.0547C57.4192 24.8363 57.2992 25.678 56.8792 26.3393C56.4592 27.0006 55.7992 27.4215 54.5392 27.9625L50.6392 29.706L50.4592 29.3453L51.4192 28.3834ZM51.4792 23.3934L52.0792 23.1529C53.2192 22.672 53.6992 21.6499 53.2192 20.5076C52.7992 19.3653 51.8992 18.9445 50.7592 19.4255L49.9192 19.8463L51.4792 23.3934ZM53.2792 27.7822L53.8192 27.5417C54.5992 27.2411 54.9592 27.0006 55.1992 26.4595C55.4392 25.9786 55.4392 25.3774 55.1992 24.8363C54.7192 23.5738 53.6992 23.213 52.3792 23.7541L51.6592 24.0547L53.2792 27.7822ZM61.0792 21.9505L60.5392 25.0166L61.7992 25.3172L61.8592 25.7381L58.5592 26.5197L58.4992 26.0988L59.5192 25.3774L61.7992 15.3974L62.5192 15.2772L67.6792 23.8744L68.8792 24.175L68.9392 24.5958L64.6792 25.197L64.6192 24.7762L65.6392 24.0547L64.1392 21.3493L61.0792 21.9505ZM61.1992 21.2291L63.7192 20.7481L61.9792 17.5617L61.1992 21.2291ZM71.0392 23.694L71.0992 15.5177L69.8392 14.9766V14.5557C72.1792 14.4956 74.2792 14.4956 74.2792 14.4956V14.9164L73.0192 15.4575L72.8992 23.8142L75.2392 23.8744L76.1992 22.0708H76.7992L76.5592 24.6559C76.5592 24.6559 72.7792 24.4756 69.6592 24.5958V24.175L71.0392 23.694ZM87.8992 26.2191L89.1592 24.4756L89.8192 24.6559L89.0392 27.0006H88.7992C87.4192 26.9405 86.6392 26.8804 85.7392 26.6399C82.7992 25.8583 81.5392 23.5738 82.1992 20.5677C82.9192 17.4415 85.1392 15.9385 88.8592 16.8403C89.7592 17.0207 90.6592 17.5016 91.7392 18.1028L91.0792 20.5076L90.4192 20.3874L90.2392 18.2231C90.2392 18.2231 89.8792 18.0427 89.4592 17.9225C86.2192 17.0808 84.6592 18.6439 84.1192 21.1088C83.5192 23.6339 84.5992 25.5577 86.8192 26.2191C87.2992 26.0988 87.5392 26.1589 87.8992 26.2191ZM106.679 34.3353L113.579 31.209L115.859 33.4936L115.559 33.7942L114.239 33.3734L108.599 39.205L109.259 40.4675L108.959 40.7682C107.459 39.2651 105.959 37.8223 105.959 37.8223L106.259 37.4615L107.519 37.8824L112.079 33.0728L104.459 36.4395L104.159 36.199L106.439 28.1429L102.299 33.3734L102.899 34.5758L102.599 34.8764L99.7192 32.8323L100.019 32.5317L101.339 32.9525L106.499 26.7L105.899 25.4976L106.199 25.197L108.839 27.1209L106.679 34.3353ZM115.079 41.67L112.499 43.5938L112.799 44.9164L112.499 45.1569C111.239 43.4134 109.799 41.67 109.799 41.67L110.159 41.4295L111.299 42.0908L117.659 37.1008L117.359 35.8383L117.719 35.5978L120.359 39.0247C121.259 40.2271 121.499 40.9485 121.559 41.7902C121.559 42.6319 121.199 43.3533 120.479 43.8944C118.979 44.9766 117.119 44.4355 115.739 42.5718L115.079 41.67ZM115.919 41.67C116.399 42.3313 116.759 42.5718 117.179 42.692C117.839 42.8122 118.559 42.7521 119.159 42.2712C119.759 41.8503 120.119 41.3092 120.179 40.7682C120.239 40.2271 120.119 39.8062 119.699 39.2651L119.099 38.5437L115.559 41.3092L115.919 41.67ZM119.099 48.5237L116.039 48.7641L116.099 50.0267L115.739 50.207C114.959 48.7641 114.059 47.2611 114.059 47.2611L114.419 47.0207L115.379 47.8623L125.579 47.2611L125.939 48.1028L119.099 55.3173L119.159 56.5798L118.799 56.7601C117.959 54.716 117.179 52.8523 117.179 52.8523L117.539 52.672L118.499 53.4535L120.539 51.2892L119.099 48.5237ZM119.879 48.4635L121.019 50.7481L123.599 48.2231L119.879 48.4635ZM121.379 63.2531L123.599 63.4936L123.779 64.1549L121.379 64.6359L121.259 64.4555C120.539 63.2531 120.239 62.5317 119.999 61.69C119.159 58.684 120.479 56.5798 123.479 55.5577C126.599 54.5357 129.179 56.0988 130.019 59.4054C130.259 60.3072 130.379 61.3894 130.379 62.5918L127.979 63.193L127.799 62.5317L129.539 61.3293C129.539 61.0888 129.479 60.7281 129.419 60.4275C128.639 57.6619 126.599 56.5798 124.019 57.4215C121.499 58.2631 120.359 59.9465 121.019 62.2912C121.079 62.6519 121.199 62.8924 121.379 63.2531ZM130.739 70.3473L122.519 70.9485L122.099 72.6319L121.679 72.692C121.619 69.9866 121.259 67.5217 121.259 67.5217L121.679 67.4615L122.339 69.0848L130.559 68.4836L130.379 66.3794L128.279 65.7782L128.219 65.177L131.039 64.9365C131.039 64.9365 131.699 69.3854 131.699 73.7742L128.879 74.0146L128.819 73.4134L130.799 72.5116L130.739 70.3473ZM92.5792 23.5136C93.9592 20.5076 96.7192 19.4255 99.6592 20.9886C102.419 22.3714 103.019 24.9565 101.639 27.4816C100.139 30.2471 97.3192 31.3894 94.6192 30.0066C92.0992 28.7441 91.3192 26.2191 92.5792 23.5136ZM94.4992 24.0547C93.3592 26.5197 93.7192 28.6239 95.1592 29.3453C96.5392 30.0667 98.3992 29.0447 99.7192 26.7601C100.919 24.5357 100.799 22.4315 99.0592 21.5297C97.2592 20.5678 95.6392 21.6499 94.4992 24.0547ZM94.4392 80.9886C94.1992 80.8082 94.1392 79.7862 94.1392 79.7862C93.4792 74.676 92.2192 69.5056 90.2392 64.4555C90.1192 64.1549 90.0592 63.9746 90.0592 63.7942C90.0592 63.5537 90.1792 63.3132 90.7792 63.0126C93.3592 61.8102 95.4592 60.3072 97.0192 58.7441C97.2592 58.5036 97.4392 58.3834 97.5592 58.3834C97.6792 58.3834 97.7992 58.5036 98.0392 58.8643C100.379 62.8924 102.119 67.4014 103.319 72.1509C103.439 72.692 103.499 73.1128 103.499 73.4134C103.499 74.0748 103.259 74.5557 102.659 75.1569C101.099 76.7201 98.3392 78.9445 95.4592 80.688C95.3392 80.688 94.6192 81.1088 94.4392 80.9886ZM91.9192 86.8804C91.9192 86.8804 91.9192 85.9786 91.6192 85.7982C91.3192 85.6179 90.5992 85.9185 90.5992 85.9185C85.5592 87.7221 80.0392 88.6239 74.2792 88.8042C73.1992 88.8643 73.2592 89.1048 73.1992 90.0066C73.1392 95.1169 73.0192 99.9265 72.8992 104.315C72.8992 104.315 72.8392 104.736 73.0192 104.916C73.1392 105.037 73.6192 105.037 73.6192 105.037C79.3792 104.676 84.8392 103.413 89.8192 101.369C90.5392 101.069 90.6592 100.588 90.8992 99.7461C92.2792 94.215 91.9192 86.8804 91.9192 86.8804ZM89.6992 60.668C91.9792 59.4655 94.0792 58.0227 95.3992 56.6399C95.6992 56.3393 95.8192 56.0988 95.8192 55.7982C95.8192 55.4976 95.6992 55.197 95.3992 54.716C92.3392 50.4475 88.6792 47.0808 84.7192 44.5557C83.5792 45.3373 81.7792 46.0587 79.9192 46.4796C83.1592 50.4475 86.0392 54.9565 88.3792 60.0667C88.6192 60.5477 88.7392 60.8483 88.9192 60.9084C89.1592 60.9686 89.4592 60.7882 89.6992 60.668ZM85.7392 62.3513C86.0392 62.2311 86.2192 62.171 86.3392 61.9305C86.3992 61.69 86.2192 61.1489 86.2192 61.1489C83.9992 55.678 81.2992 50.688 78.4192 46.8403C76.8592 47.1409 73.8592 47.3213 72.7792 47.3213C72.9592 52.8523 73.0792 58.3233 73.1392 63.6138C73.1392 64.0948 73.1992 64.3353 73.3792 64.4555C73.4992 64.5758 73.7392 64.6359 73.9792 64.6359C77.5792 64.5758 82.7392 63.4936 85.7392 62.3513ZM89.6392 103.774C89.6392 103.654 89.5192 103.654 89.5192 103.654C89.3992 103.654 89.2192 103.714 88.7992 103.834C82.4992 105.818 77.0392 106.299 73.4992 106.359C73.0192 106.359 72.8992 106.54 72.8392 107.081L72.5392 111.77C72.5392 111.77 79.6192 111.951 86.8792 108.884C87.8992 107.562 88.7392 105.999 89.4592 104.255C89.5192 104.075 89.5792 103.955 89.6392 103.774ZM104.339 77.8623C104.339 77.7421 104.219 77.8623 104.219 77.8623C102.539 79.5457 99.4792 81.8303 95.8792 83.6339C94.7392 84.2351 94.6192 84.6559 94.5592 85.678C94.6192 91.5096 93.8992 95.9585 92.6392 99.7461C92.6392 99.7461 92.5192 100.047 92.8792 99.8663C93.2392 99.686 98.4592 97.1609 102.059 93.4936C103.259 92.2912 104.219 90.4876 104.399 88.5637C105.179 82.191 104.339 77.8623 104.339 77.8623ZM106.139 70.4074C108.539 66.2591 108.539 62.8323 108.539 62.8323C108.539 62.5918 108.539 62.4114 108.479 62.2912C107.399 57.5417 104.879 53.0327 101.099 48.8844C101.159 49.3052 101.159 49.6659 101.159 50.0868C101.159 51.5297 100.859 53.0327 100.139 54.5958C99.8992 55.1369 99.7792 55.4976 99.7792 55.7982C99.7792 56.0988 99.8992 56.2792 100.079 56.6399C100.139 56.5197 103.979 61.7501 106.139 70.4074ZM51.3592 82.191C51.7192 76.2992 53.3392 70.1068 55.5592 64.215C55.6192 64.0948 55.6192 63.9746 55.6192 63.9144C55.6192 63.7341 55.4992 63.6138 55.1992 63.4936C51.4792 61.8704 48.6592 59.6459 46.7992 57.2411C46.7992 57.2411 46.6792 57.1209 46.7992 57.0006C46.9192 56.8804 47.0392 57.0006 47.0392 57.0006C49.1392 59.0447 52.1992 60.7281 55.7392 62.0507C55.9192 62.1108 55.9792 62.1108 56.0992 62.1108C56.2792 62.1108 56.3992 61.9906 56.6392 61.5096C59.0392 55.9786 62.1592 50.7481 65.6992 46.4195C62.6992 45.698 59.6392 44.0748 58.9192 42.3313C58.9192 42.3313 58.7992 42.1509 58.9792 42.0307C59.1592 41.9706 59.2792 42.1509 59.2792 42.1509C62.5792 45.7581 72.2392 45.5177 72.2392 45.5177C76.2592 45.5177 84.5992 44.1349 84.5992 40.708C84.5992 37.6419 80.1592 36.0187 72.1192 35.8984C47.7592 35.8984 34.6792 57.0607 34.6792 73.8343C34.6792 94.0948 51.8392 111.77 71.6992 111.77C71.6992 111.47 71.4592 107.021 71.4592 107.021C71.4592 106.54 71.3392 106.359 70.7392 106.299C70.7392 106.299 62.0992 105.638 59.2792 104.195C59.1592 104.135 59.2192 104.015 59.3992 104.015C59.3992 104.015 65.2192 105.037 70.7992 105.037C70.7992 105.037 71.3992 105.097 71.3992 104.375C71.3992 103.774 71.1592 90.0066 71.1592 90.0066C71.0992 88.9846 70.9792 88.8042 69.9592 88.7441C63.9592 88.4435 58.0792 87.181 52.9792 85.0167C52.8592 84.9565 52.7992 84.9565 52.6792 84.9565C52.5592 85.0166 52.5592 85.2571 52.5592 85.2571C52.0792 91.6299 52.7992 97.8223 52.7992 97.8223C52.7992 97.9425 52.7992 98.0026 52.6792 98.0026C52.5592 98.0026 52.5592 97.8824 52.5592 97.8824C51.6592 94.4555 51.1792 90.7281 51.1792 86.7601C51.1792 86.4595 51.2392 84.8363 51.2392 84.8363C51.2392 84.4155 51.0592 84.1148 50.6992 83.9345C48.2992 82.7321 46.1392 81.2291 44.2192 79.7261C44.2192 79.7261 44.0992 79.6058 44.2192 79.4856C44.3392 79.4255 44.3992 79.4856 44.3992 79.4856C46.3792 80.7481 48.6592 81.8303 50.9992 82.7922H51.2992C51.2992 82.7321 51.2992 82.5517 51.3592 82.191ZM98.0992 52.4916C98.7592 50.8082 98.8792 48.4635 98.1592 46.7802C97.4992 45.217 95.3992 43.5938 95.3992 43.5938C92.1592 41.0688 88.5592 39.5056 86.8792 38.8443C87.1792 39.3854 87.3592 39.9265 87.3592 40.4675C87.3592 41.4295 86.8792 42.3914 86.0392 43.4134C90.2992 45.8784 93.8392 48.8243 96.9592 52.4315C96.9592 52.4315 97.4392 53.0327 97.7392 53.0327C97.9192 52.9726 98.0992 52.4916 98.0992 52.4916ZM107.279 80.4475C107.279 83.0327 107.039 85.6179 106.559 88.0227C108.659 84.4155 110.339 79.1249 110.339 72.9926C110.339 71.2491 110.219 69.5056 109.919 67.702C109.559 69.5056 108.959 71.3092 107.939 72.9926C107.279 74.1349 106.979 74.9165 107.099 75.698C107.219 78.2231 107.279 80.4475 107.279 80.4475ZM90.9592 104.135C90.2992 105.518 89.5192 106.84 88.6792 108.043C93.1792 105.818 98.2792 101.429 101.759 96.9205C99.0592 99.0848 95.9992 100.949 92.5192 102.391C91.8592 102.752 91.2592 103.534 90.9592 104.135ZM71.1592 68.0026C71.1592 67.2211 70.7992 66.8002 70.0792 66.7401C65.6392 66.5597 61.3792 65.7181 57.5992 64.3954C57.4192 64.3353 57.2992 64.2752 57.1792 64.2752C57.0592 64.2752 56.9392 64.3353 56.8792 64.6359C53.3992 73.4134 52.6792 82.9124 52.6792 82.9124C52.6192 83.3333 52.7392 83.4535 53.0392 83.5738C53.0392 83.5738 60.4192 86.3994 69.8992 86.3994C69.8992 86.3994 70.5592 86.3994 70.7392 86.2191C70.9792 85.9786 71.0392 85.7982 70.9792 85.0167C71.0992 80.3874 71.1592 68.0026 71.1592 68.0026ZM57.9592 61.9906C57.7192 62.4716 57.8392 62.6519 57.8392 62.6519C57.8992 62.7722 58.0792 62.8323 58.0792 62.8323C60.8992 63.7942 66.3592 64.696 70.1992 64.696C70.6192 64.696 70.8592 64.6359 71.0392 64.4555C71.2192 64.2752 71.2792 63.9746 71.3392 63.4936C71.4592 58.203 71.5792 52.672 71.8792 47.3213C70.2592 47.2611 68.2192 47.0207 66.8392 46.7201C63.2392 51.2291 60.2992 56.3393 57.9592 61.9906ZM74.0992 86.3393C76.7392 86.2191 83.5192 85.7381 90.3592 83.0928C91.3192 82.7321 91.4992 82.3112 91.4992 81.5898C91.4992 81.4094 91.4992 81.2291 91.4392 80.9886C90.7792 75.7581 89.5192 70.5277 87.7792 65.2972C87.5392 64.6359 87.4192 64.5156 87.2392 64.5156C87.1192 64.5156 86.9392 64.5758 86.6992 64.6359C82.9192 65.8984 78.7792 66.6199 74.3992 66.7401C73.5592 66.8002 73.3192 67.3413 73.3192 67.9425C73.3192 70.6479 73.3792 74.9165 73.3792 80.688C73.3792 82.1309 73.3792 84.1149 73.3792 85.4976C73.3792 85.4976 73.3792 85.9184 73.5592 86.1589C73.5592 86.3393 73.7992 86.3994 74.0992 86.3393ZM16.3792 99.686C19.2592 107.381 26.3992 108.043 31.1992 112.732C32.0992 113.634 32.9992 114.476 34.0192 115.017L34.0792 114.957C32.9392 113.754 31.6792 112.431 30.8992 110.868C28.0792 106.239 29.0992 99.686 26.9392 94.696C28.8592 97.4014 30.5992 100.227 31.7392 103.353C33.4792 108.403 34.1392 114.115 38.0992 117.902C33.7792 116.219 28.7392 116.58 24.8992 113.514C20.9392 110.327 17.1592 105.337 16.3792 99.686ZM56.4592 121.81C57.0592 121.81 57.5392 121.63 57.5392 121.63C53.8192 120.788 50.6392 120.127 47.4592 117.421C43.2592 113.874 40.0192 110.327 35.3392 107.442C35.9392 107.802 38.5792 113.273 40.7992 116.52C42.3592 118.804 44.8192 120.067 47.0392 120.608C48.8992 121.089 49.3192 121.269 49.3192 121.269C49.3192 121.269 49.0192 121.45 48.2992 121.269C48.2992 121.269 42.1192 120.007 38.7592 120.007C25.4392 120.007 21.9592 114.896 21.9592 114.896C25.9192 122.051 34.0792 124.756 39.4192 124.756C47.0992 124.696 52.7992 121.81 56.4592 121.81ZM105.479 124.696C110.819 124.696 118.979 122.051 122.939 114.836C122.939 114.836 119.459 119.947 106.139 119.947C102.779 119.947 96.5992 121.209 96.5992 121.209C95.8792 121.389 95.5792 121.209 95.5792 121.209C95.5792 121.209 95.9992 121.029 97.8592 120.548C100.019 120.007 102.539 118.744 104.099 116.46C106.319 113.213 108.959 107.742 109.559 107.381C104.879 110.267 101.639 113.874 97.4392 117.361C94.2592 120.007 91.0792 120.728 87.3592 121.57C87.3592 121.57 87.8392 121.75 88.4392 121.75C92.1592 121.81 97.8592 124.696 105.479 124.696ZM22.5592 103.293C23.8792 104.435 26.5792 106.9 27.0592 107.622C27.0592 107.622 26.7592 106.6 26.4592 105.337C26.1592 104.075 25.7392 101.009 24.4792 98.3633C23.5192 96.2591 19.4392 89.5257 18.6592 85.7982C18.6592 85.7982 15.7192 97.4615 22.5592 103.293ZM106.799 117.902C111.119 116.219 116.099 116.58 119.939 113.514C123.959 110.327 127.799 105.337 128.579 99.686C125.699 107.381 118.559 107.983 113.699 112.672C112.799 113.574 111.899 114.415 110.879 114.957L110.819 114.896C111.899 113.694 113.219 112.371 113.999 110.808C116.819 106.179 115.799 99.6259 117.959 94.6359C116.039 97.3413 114.299 100.167 113.159 103.293C111.419 108.403 110.759 114.055 106.799 117.902ZM96.1792 126.319C89.5192 123.614 82.6192 120.187 74.6392 121.81C73.7392 121.991 73.0192 122.171 72.1792 122.171C71.3992 122.171 70.6792 121.991 69.7792 121.81C61.7392 120.187 54.8392 123.614 48.1792 126.319C43.1992 128.123 36.7192 127.822 32.3392 125.057C34.4992 127.582 37.3792 129.145 40.3792 130.227C45.8992 132.271 52.4992 130.888 57.0592 127.882C61.0192 125.838 64.3792 121.75 69.5392 123.253C64.2592 125.538 59.4592 128.784 55.0792 132.932L57.7792 135.037C57.7792 135.037 62.8792 128.123 72.1192 123.975C81.2992 128.123 86.4592 135.037 86.4592 135.037L89.2192 132.932C84.8392 128.784 80.0392 125.598 74.7592 123.253C79.9192 121.69 83.3392 125.778 87.2392 127.882C91.8592 130.888 98.3992 132.271 103.979 130.227C106.979 129.145 109.859 127.582 112.019 125.057C107.639 127.882 101.159 128.183 96.1792 126.319ZM122.399 103.293C129.239 97.4615 126.359 85.7982 126.359 85.7982C125.579 89.5257 121.499 96.3193 120.539 98.3633C119.279 101.009 118.859 104.075 118.559 105.337C118.259 106.6 117.959 107.622 117.959 107.622C118.379 106.9 121.079 104.435 122.399 103.293ZM14.3992 70.167C16.4392 70.3473 18.4192 70.5277 20.4592 70.708C22.0792 70.8283 22.9192 70.2271 23.0392 68.6639C23.0992 67.9425 23.0392 67.4014 22.7392 66.9205C22.3792 66.3193 21.8392 66.0187 20.6992 65.8984C18.7792 65.6579 16.7992 65.4776 14.8792 65.2371C14.6392 65.6579 14.4592 66.0788 14.2192 66.4996C14.0992 66.4996 13.9192 66.4996 13.7992 66.4395C13.9192 65.177 14.0992 63.9144 14.2192 62.6519C14.3392 62.6519 14.5192 62.712 14.6392 62.712C14.7592 63.193 14.8792 63.6138 14.9992 64.0948C16.8592 64.3353 18.7192 64.5156 20.5792 64.7561C21.9592 64.9365 22.7992 65.4175 23.3392 66.3794C23.7592 67.1609 23.9392 68.0627 23.8192 69.205C23.5792 71.6098 22.3192 72.8724 20.2792 72.692C18.2392 72.5116 16.2592 72.3914 14.2192 72.211C13.9792 72.6319 13.7992 73.0527 13.6192 73.4736C13.4992 73.4736 13.3192 73.4736 13.1992 73.4134C13.3192 71.8503 13.4392 70.3473 13.5592 68.7842C13.6792 68.7842 13.8592 68.7842 13.9792 68.8443C14.1592 69.3253 14.2792 69.7461 14.3992 70.167ZM17.6392 58.2631C19.7992 58.9846 22.0192 59.706 24.1792 60.4275C24.4792 60.1269 24.7792 59.7662 25.0792 59.4655C25.1992 59.5257 25.3192 59.5257 25.4992 59.5858C25.1392 60.668 24.7792 61.7501 24.4192 62.8323C24.2992 62.7722 24.1192 62.7722 23.9992 62.712C23.9392 62.2311 23.9392 61.8102 23.8792 61.3293C21.2992 60.4876 18.7192 59.6459 16.1392 58.8042C15.8392 59.1649 15.5392 59.5257 15.2392 59.8864C15.1792 59.8864 14.9992 59.8864 14.8792 59.8263C15.1792 58.8643 15.4792 57.9024 15.8392 56.8804C18.5392 55.9185 21.2392 54.9565 23.9392 54.0547C22.1392 53.3934 20.2792 52.7321 18.4792 52.1309C18.1792 52.4315 17.8792 52.7922 17.5792 53.1529C17.4592 53.0928 17.3392 53.0928 17.1592 53.0327C17.5192 51.8904 17.9392 50.7481 18.3592 49.6659C18.4792 49.7261 18.5992 49.7862 18.7192 49.7862C18.7192 50.2671 18.7192 50.7481 18.7792 51.2291C21.6592 52.2511 24.5392 53.3333 27.4192 54.3553C27.3592 54.5958 27.2392 54.8363 27.1792 55.0768C23.9992 56.0387 20.8192 57.1209 17.6392 58.2631ZM31.8592 40.5878L34.1392 42.211C33.5992 43.5938 33.1792 44.4355 32.6392 45.217C30.7792 47.8022 28.1992 48.3433 25.6192 46.4796C23.0392 44.676 22.1992 42.0307 24.4192 38.9044C24.8992 38.183 25.6792 37.4615 26.6392 36.5597L26.8192 36.3794L28.7992 37.8223L28.3792 38.4235L26.3992 38.0026C26.0992 38.183 25.9192 38.3633 25.7392 38.6038C23.8192 41.0086 24.4192 43.2331 26.7592 44.9164C28.8592 46.4195 31.0792 46.0587 32.4592 44.1349C32.6992 43.7742 32.7592 43.5337 32.7592 43.5337L30.7792 42.1509L29.5792 42.8724L29.2192 42.6319L31.7992 39.0848L32.1592 39.3253L31.8592 40.5878ZM35.9992 39.5056L30.2392 33.674L28.9792 34.1549L28.6792 33.8543L31.8592 30.7281L32.1592 31.0287L31.6192 32.2912L37.4392 38.2431L39.2392 36.4395L38.6392 34.4555L39.0592 33.9746L40.6792 35.9585C40.6792 35.9585 38.1592 38.3633 35.6992 40.9485L35.3992 40.6479L35.9992 39.5056ZM38.8192 31.4495C36.9592 28.7441 37.3792 25.8583 40.1992 24.0547C42.7792 22.4315 45.2992 23.1529 46.7992 25.6179C48.4192 28.3233 47.9992 31.2692 45.4192 32.9525C43.0792 34.5156 40.4992 33.8543 38.8192 31.4495ZM40.3192 30.0667C41.8792 32.2912 43.8592 33.0126 45.2392 32.171C46.5592 31.3293 46.6192 29.2251 45.2392 26.8804C43.9192 24.716 42.0592 23.7541 40.4392 24.8363C38.6392 25.9185 38.7592 27.9024 40.3192 30.0667ZM51.4192 28.3834L48.1792 20.8082H46.8592L46.6792 20.4475L51.2392 18.5237C52.3192 18.1028 52.9792 18.0427 53.6992 18.2832C54.3592 18.5237 54.7792 18.9445 55.0192 19.5457C55.4992 20.8082 54.8392 22.0708 53.2192 22.9124C55.1992 22.191 56.5192 22.6118 57.1192 24.0547C57.4192 24.8363 57.2992 25.678 56.8792 26.3393C56.4592 27.0006 55.7992 27.4215 54.5392 27.9625L50.6392 29.706L50.4592 29.3453L51.4192 28.3834ZM51.4792 23.3934L52.0792 23.1529C53.2192 22.672 53.6992 21.6499 53.2192 20.5076C52.7992 19.3653 51.8992 18.9445 50.7592 19.4255L49.9192 19.8463L51.4792 23.3934ZM53.2792 27.7822L53.8192 27.5417C54.5992 27.2411 54.9592 27.0006 55.1992 26.4595C55.4392 25.9786 55.4392 25.3774 55.1992 24.8363C54.7192 23.5738 53.6992 23.213 52.3792 23.7541L51.6592 24.0547L53.2792 27.7822ZM61.0792 21.9505L60.5392 25.0166L61.7992 25.3172L61.8592 25.7381L58.5592 26.5197L58.4992 26.0988L59.5192 25.3774L61.7992 15.3974L62.5192 15.2772L67.6792 23.8744L68.8792 24.175L68.9392 24.5958L64.6792 25.197L64.6192 24.7762L65.6392 24.0547L64.1392 21.3493L61.0792 21.9505ZM61.1992 21.2291L63.7192 20.7481L61.9792 17.5617L61.1992 21.2291ZM71.0392 23.694L71.0992 15.5177L69.8392 14.9766V14.5557C72.1792 14.4956 74.2792 14.4956 74.2792 14.4956V14.9164L73.0192 15.4575L72.8992 23.8142L75.2392 23.8744L76.1992 22.0708H76.7992L76.5592 24.6559C76.5592 24.6559 72.7792 24.4756 69.6592 24.5958V24.175L71.0392 23.694ZM87.8992 26.2191L89.1592 24.4756L89.8192 24.6559L89.0392 27.0006H88.7992C87.4192 26.9405 86.6392 26.8804 85.7392 26.6399C82.7992 25.8583 81.5392 23.5738 82.1992 20.5677C82.9192 17.4415 85.1392 15.9385 88.8592 16.8403C89.7592 17.0207 90.6592 17.5016 91.7392 18.1028L91.0792 20.5076L90.4192 20.3874L90.2392 18.2231C90.2392 18.2231 89.8792 18.0427 89.4592 17.9225C86.2192 17.0808 84.6592 18.6439 84.1192 21.1088C83.5192 23.6339 84.5992 25.5577 86.8192 26.2191C87.2992 26.0988 87.5392 26.1589 87.8992 26.2191ZM106.679 34.3353L113.579 31.209L115.859 33.4936L115.559 33.7942L114.239 33.3734L108.599 39.205L109.259 40.4675L108.959 40.7682C107.459 39.2651 105.959 37.8223 105.959 37.8223L106.259 37.4615L107.519 37.8824L112.079 33.0728L104.459 36.4395L104.159 36.199L106.439 28.1429L102.299 33.3734L102.899 34.5758L102.599 34.8764L99.7192 32.8323L100.019 32.5317L101.339 32.9525L106.499 26.7L105.899 25.4976L106.199 25.197L108.839 27.1209L106.679 34.3353ZM115.079 41.67L112.499 43.5938L112.799 44.9164L112.499 45.1569C111.239 43.4134 109.799 41.67 109.799 41.67L110.159 41.4295L111.299 42.0908L117.659 37.1008L117.359 35.8383L117.719 35.5978L120.359 39.0247C121.259 40.2271 121.499 40.9485 121.559 41.7902C121.559 42.6319 121.199 43.3533 120.479 43.8944C118.979 44.9766 117.119 44.4355 115.739 42.5718L115.079 41.67ZM115.919 41.67C116.399 42.3313 116.759 42.5718 117.179 42.692C117.839 42.8122 118.559 42.7521 119.159 42.2712C119.759 41.8503 120.119 41.3092 120.179 40.7682C120.239 40.2271 120.119 39.8062 119.699 39.2651L119.099 38.5437L115.559 41.3092L115.919 41.67ZM119.099 48.5237L116.039 48.7641L116.099 50.0267L115.739 50.207C114.959 48.7641 114.059 47.2611 114.059 47.2611L114.419 47.0207L115.379 47.8623L125.579 47.2611L125.939 48.1028L119.099 55.3173L119.159 56.5798L118.799 56.7601C117.959 54.716 117.179 52.8523 117.179 52.8523L117.539 52.672L118.499 53.4535L120.539 51.2892L119.099 48.5237ZM119.879 48.4635L121.019 50.7481L123.599 48.2231L119.879 48.4635ZM121.379 63.2531L123.599 63.4936L123.779 64.1549L121.379 64.6359L121.259 64.4555C120.539 63.2531 120.239 62.5317 119.999 61.69C119.159 58.684 120.479 56.5798 123.479 55.5577C126.599 54.5357 129.179 56.0988 130.019 59.4054C130.259 60.3072 130.379 61.3894 130.379 62.5918L127.979 63.193L127.799 62.5317L129.539 61.3293C129.539 61.0888 129.479 60.7281 129.419 60.4275C128.639 57.6619 126.599 56.5798 124.019 57.4215C121.499 58.2631 120.359 59.9465 121.019 62.2912C121.079 62.6519 121.199 62.8924 121.379 63.2531ZM130.739 70.3473L122.519 70.9485L122.099 72.6319L121.679 72.692C121.619 69.9866 121.259 67.5217 121.259 67.5217L121.679 67.4615L122.339 69.0848L130.559 68.4836L130.379 66.3794L128.279 65.7782L128.219 65.177L131.039 64.9365C131.039 64.9365 131.699 69.3854 131.699 73.7742L128.879 74.0146L128.819 73.4134L130.799 72.5116L130.739 70.3473ZM92.5792 23.5136C93.9592 20.5076 96.7192 19.4255 99.6592 20.9886C102.419 22.3714 103.019 24.9565 101.639 27.4816C100.139 30.2471 97.3192 31.3894 94.6192 30.0066C92.0992 28.7441 91.3192 26.2191 92.5792 23.5136ZM94.4992 24.0547C93.3592 26.5197 93.7192 28.6239 95.1592 29.3453C96.5392 30.0667 98.3992 29.0447 99.7192 26.7601C100.919 24.5357 100.799 22.4315 99.0592 21.5297C97.2592 20.5678 95.6392 21.6499 94.4992 24.0547Z" fill="#1C2947"/>
</svg>
